<svg width="12" height="11" viewBox="0 0 12 11" fill="none" xmlns="http://www.w3.org/2000/svg">
<mask id="path-1-inside-1_212_1414" fill="white">
<path d="M7.34135 4.92435C7.26096 4.92435 7.18632 4.90225 7.12001 4.8667V4.86764C7.12001 4.99412 7.07085 5.1129 6.98165 5.20186C6.89245 5.29106 6.77376 5.34022 6.64742 5.34022C6.56586 5.34022 6.49027 5.31757 6.42324 5.28107C6.41648 5.39678 6.37023 5.50493 6.28772 5.58753C6.19852 5.67673 6.07983 5.72589 5.95341 5.72589C5.70225 5.72589 5.49828 5.52846 5.48358 5.281C5.40587 5.323 5.31801 5.34502 5.22739 5.3392C4.98031 5.323 4.78682 5.10952 4.78682 4.85309V2.72748L4.54478 3.1468C4.45259 3.30718 4.28003 3.40676 4.09423 3.40676C4.00369 3.40676 3.91426 3.38301 3.83505 3.33762C3.73641 3.28044 3.66586 3.18864 3.63651 3.07883C3.60702 2.96894 3.62228 2.85402 3.6793 2.75553C3.67938 2.75553 4.47123 1.38428 4.51954 1.30005C4.52528 1.28738 4.54164 1.25065 4.55557 1.21934C4.56886 1.18945 4.58027 1.15878 4.5912 1.12794C4.83 0.453772 5.42129 0.0349922 6.1344 0.0349922C7.06044 0.0349922 7.81383 0.851931 7.81383 1.8561L7.8139 4.4517C7.8139 4.57802 7.76482 4.69672 7.6757 4.786C7.5865 4.8752 7.46781 4.92436 7.34133 4.92436L7.34135 4.92435ZM6.13441 0.286108C5.52165 0.286108 5.03326 0.632214 4.82789 1.21192C4.81476 1.24874 4.80107 1.28555 4.7851 1.32142C4.73877 1.42532 4.73877 1.42532 4.72571 1.44027L4.72398 1.43877C4.65933 1.56077 4.46724 1.89342 3.89674 2.88121C3.8733 2.92172 3.86708 2.96876 3.87904 3.01375C3.89115 3.05874 3.92018 3.09666 3.96037 3.11986C4.08512 3.19152 4.25597 3.14527 4.32708 3.02138L4.80367 2.19625C4.83214 2.14709 4.88972 2.12294 4.94494 2.13788C4.99984 2.15259 5.03799 2.20238 5.03799 2.25917V4.85316C5.03799 4.97555 5.13033 5.08118 5.24385 5.08866C5.30929 5.09212 5.37033 5.07017 5.41619 5.02439C5.45788 4.9827 5.48084 4.92717 5.48084 4.86778V3.17128C5.48084 3.10191 5.53708 3.04566 5.60646 3.04566C5.67584 3.04566 5.73208 3.10183 5.73208 3.17128L5.732 5.2534C5.732 5.37548 5.83134 5.47482 5.95342 5.47482C6.01273 5.47482 6.06842 5.45185 6.11019 5.41016C6.15188 5.3684 6.17484 5.31271 6.17484 5.2534V3.17128C6.17484 3.1019 6.23101 3.04566 6.30046 3.04566C6.36984 3.04566 6.42608 3.10183 6.42608 3.17128L6.426 4.84827V4.86778C6.426 4.98978 6.52535 5.08912 6.6475 5.08912C6.70673 5.08912 6.76226 5.06607 6.80427 5.02422C6.84596 4.98261 6.86892 4.92708 6.86892 4.86769V3.17119C6.86892 3.10182 6.92509 3.04558 6.99454 3.04558C7.06392 3.04558 7.12016 3.10174 7.12016 3.17119L7.12 4.45175C7.12 4.57391 7.21935 4.67326 7.34134 4.67326C7.40073 4.67326 7.45626 4.65021 7.49795 4.6086C7.5398 4.56675 7.56269 4.51106 7.56269 4.45175L7.56276 1.85616C7.56276 0.99053 6.92202 0.286133 6.1344 0.286133L6.13441 0.286108Z"/>
</mask>
<path d="M7.34135 4.92435C7.26096 4.92435 7.18632 4.90225 7.12001 4.8667V4.86764C7.12001 4.99412 7.07085 5.1129 6.98165 5.20186C6.89245 5.29106 6.77376 5.34022 6.64742 5.34022C6.56586 5.34022 6.49027 5.31757 6.42324 5.28107C6.41648 5.39678 6.37023 5.50493 6.28772 5.58753C6.19852 5.67673 6.07983 5.72589 5.95341 5.72589C5.70225 5.72589 5.49828 5.52846 5.48358 5.281C5.40587 5.323 5.31801 5.34502 5.22739 5.3392C4.98031 5.323 4.78682 5.10952 4.78682 4.85309V2.72748L4.54478 3.1468C4.45259 3.30718 4.28003 3.40676 4.09423 3.40676C4.00369 3.40676 3.91426 3.38301 3.83505 3.33762C3.73641 3.28044 3.66586 3.18864 3.63651 3.07883C3.60702 2.96894 3.62228 2.85402 3.6793 2.75553C3.67938 2.75553 4.47123 1.38428 4.51954 1.30005C4.52528 1.28738 4.54164 1.25065 4.55557 1.21934C4.56886 1.18945 4.58027 1.15878 4.5912 1.12794C4.83 0.453772 5.42129 0.0349922 6.1344 0.0349922C7.06044 0.0349922 7.81383 0.851931 7.81383 1.8561L7.8139 4.4517C7.8139 4.57802 7.76482 4.69672 7.6757 4.786C7.5865 4.8752 7.46781 4.92436 7.34133 4.92436L7.34135 4.92435ZM6.13441 0.286108C5.52165 0.286108 5.03326 0.632214 4.82789 1.21192C4.81476 1.24874 4.80107 1.28555 4.7851 1.32142C4.73877 1.42532 4.73877 1.42532 4.72571 1.44027L4.72398 1.43877C4.65933 1.56077 4.46724 1.89342 3.89674 2.88121C3.8733 2.92172 3.86708 2.96876 3.87904 3.01375C3.89115 3.05874 3.92018 3.09666 3.96037 3.11986C4.08512 3.19152 4.25597 3.14527 4.32708 3.02138L4.80367 2.19625C4.83214 2.14709 4.88972 2.12294 4.94494 2.13788C4.99984 2.15259 5.03799 2.20238 5.03799 2.25917V4.85316C5.03799 4.97555 5.13033 5.08118 5.24385 5.08866C5.30929 5.09212 5.37033 5.07017 5.41619 5.02439C5.45788 4.9827 5.48084 4.92717 5.48084 4.86778V3.17128C5.48084 3.10191 5.53708 3.04566 5.60646 3.04566C5.67584 3.04566 5.73208 3.10183 5.73208 3.17128L5.732 5.2534C5.732 5.37548 5.83134 5.47482 5.95342 5.47482C6.01273 5.47482 6.06842 5.45185 6.11019 5.41016C6.15188 5.3684 6.17484 5.31271 6.17484 5.2534V3.17128C6.17484 3.1019 6.23101 3.04566 6.30046 3.04566C6.36984 3.04566 6.42608 3.10183 6.42608 3.17128L6.426 4.84827V4.86778C6.426 4.98978 6.52535 5.08912 6.6475 5.08912C6.70673 5.08912 6.76226 5.06607 6.80427 5.02422C6.84596 4.98261 6.86892 4.92708 6.86892 4.86769V3.17119C6.86892 3.10182 6.92509 3.04558 6.99454 3.04558C7.06392 3.04558 7.12016 3.10174 7.12016 3.17119L7.12 4.45175C7.12 4.57391 7.21935 4.67326 7.34134 4.67326C7.40073 4.67326 7.45626 4.65021 7.49795 4.6086C7.5398 4.56675 7.56269 4.51106 7.56269 4.45175L7.56276 1.85616C7.56276 0.99053 6.92202 0.286133 6.1344 0.286133L6.13441 0.286108Z" fill="#4CAF4F"/>
<path d="M7.34135 4.92435V4.4792H8.9141L7.57466 5.30347L7.34135 4.92435ZM7.12001 4.8667H6.67485V4.12289L7.33037 4.47438L7.12001 4.8667ZM6.98165 5.20186L6.66688 4.88709L6.66729 4.88668L6.98165 5.20186ZM6.42324 5.28107L5.97885 5.25509L6.01981 4.55449L6.63614 4.89013L6.42324 5.28107ZM6.28772 5.58753L6.60265 5.90214L6.60249 5.9023L6.28772 5.58753ZM5.48358 5.281L5.27193 4.88938L5.88653 4.5572L5.92796 5.2546L5.48358 5.281ZM5.22739 5.3392L5.19885 5.78344L5.19826 5.7834L5.22739 5.3392ZM4.78682 2.72748L4.40128 2.50494L5.23198 1.0658V2.72748H4.78682ZM4.54478 3.1468L4.15884 2.92496L4.15924 2.92426L4.54478 3.1468ZM3.83505 3.33762L3.61373 3.72387L3.61178 3.72274L3.83505 3.33762ZM3.63651 3.07883L4.06645 2.96342L4.06658 2.96392L3.63651 3.07883ZM3.6793 2.75553L3.29407 2.53247L3.42267 2.31038H3.6793V2.75553ZM4.51954 1.30005L4.92497 1.48387L4.91623 1.50315L4.9057 1.52151L4.51954 1.30005ZM4.55557 1.21934L4.14882 1.03846L4.14882 1.03845L4.55557 1.21934ZM4.5912 1.12794L5.01081 1.27657L5.01077 1.27669L4.5912 1.12794ZM7.81383 1.8561L7.36867 1.85611V1.8561H7.81383ZM7.8139 4.4517L8.25906 4.45168V4.4517H7.8139ZM7.6757 4.786L7.99077 5.10048L7.99047 5.10077L7.6757 4.786ZM7.34133 4.92436V5.36952H5.76858L7.10803 4.54524L7.34133 4.92436ZM6.13441 0.286108V-0.159048H6.72456L6.56244 0.408401L6.13441 0.286108ZM4.82789 1.21192L5.24749 1.36058L5.24715 1.36153L4.82789 1.21192ZM4.7851 1.32142L5.19178 1.50246L5.19167 1.5027L4.7851 1.32142ZM4.72571 1.44027L5.06094 1.73316L4.76972 2.06646L4.43475 1.77717L4.72571 1.44027ZM4.72398 1.43877L4.33065 1.23032L4.59221 0.736782L5.01495 1.10187L4.72398 1.43877ZM3.89674 2.88121L4.28222 3.10385L4.28203 3.10417L3.89674 2.88121ZM3.87904 3.01375L3.44919 3.12948L3.44882 3.12809L3.87904 3.01375ZM3.96037 3.11986L3.73865 3.50587L3.73781 3.50539L3.96037 3.11986ZM4.32708 3.02138L3.94099 2.79979L3.9416 2.79873L4.32708 3.02138ZM4.80367 2.19625L4.41819 1.9736L4.41846 1.97313L4.80367 2.19625ZM4.94494 2.13788L4.82974 2.56788L4.82864 2.56758L4.94494 2.13788ZM5.24385 5.08866L5.22033 5.53323L5.21461 5.53285L5.24385 5.08866ZM5.41619 5.02439L5.73096 5.33916L5.73068 5.33944L5.41619 5.02439ZM5.73208 3.17128H6.17723V3.1713L5.73208 3.17128ZM5.732 5.2534H5.28684V5.25338L5.732 5.2534ZM6.11019 5.41016L6.42526 5.72464L6.42466 5.72524L6.11019 5.41016ZM6.42608 3.17128H6.87123V3.1713L6.42608 3.17128ZM6.426 4.84827H5.98084V4.84825L6.426 4.84827ZM6.80427 5.02422L7.11874 5.33929L7.11845 5.33959L6.80427 5.02422ZM7.12016 3.17119H7.56532V3.17125L7.12016 3.17119ZM7.12 4.45175H6.67485L6.67485 4.4517L7.12 4.45175ZM7.49795 4.6086L7.81272 4.92337L7.81243 4.92367L7.49795 4.6086ZM7.56269 4.45175H7.11753V4.45174L7.56269 4.45175ZM7.56276 1.85616H8.00792V1.85617L7.56276 1.85616ZM6.1344 0.286133V0.731289H5.54425L5.70637 0.16384L6.1344 0.286133ZM7.34135 5.36951C7.17743 5.36951 7.0311 5.32413 6.90965 5.25901L7.33037 4.47438C7.33612 4.47746 7.33977 4.47864 7.34122 4.47903C7.34247 4.47937 7.3423 4.4792 7.34135 4.4792V5.36951ZM7.56517 4.8667V4.86764H6.67485V4.8667H7.56517ZM7.56517 4.86764C7.56517 5.11182 7.46935 5.34417 7.29601 5.51705L6.66729 4.88668C6.67047 4.8835 6.67205 4.88078 6.67297 4.87856C6.67389 4.87633 6.67485 4.8729 6.67485 4.86764H7.56517ZM7.29642 5.51664C7.12367 5.68939 6.89172 5.78538 6.64742 5.78538V4.89507C6.65253 4.89507 6.65589 4.89414 6.65817 4.8932C6.66045 4.89225 6.6634 4.89057 6.66688 4.88709L7.29642 5.51664ZM6.64742 5.78538C6.48137 5.78538 6.3332 5.73892 6.21035 5.67202L6.63614 4.89013C6.64194 4.89328 6.64561 4.89449 6.64707 4.89488C6.64832 4.89522 6.64822 4.89507 6.64742 4.89507V5.78538ZM6.86764 5.30705C6.85483 5.52617 6.76595 5.73867 6.60265 5.90214L5.97278 5.27292C5.97443 5.27127 5.97539 5.26981 5.97619 5.26797C5.97707 5.26597 5.97845 5.26189 5.97885 5.25509L6.86764 5.30705ZM6.60249 5.9023C6.42971 6.07509 6.19775 6.17105 5.95341 6.17105V5.28074C5.95859 5.28074 5.96198 5.2798 5.96426 5.27885C5.96653 5.27791 5.96947 5.27623 5.97294 5.27276L6.60249 5.9023ZM5.95341 6.17105C5.46196 6.17105 5.0676 5.78533 5.03921 5.30739L5.92796 5.2546C5.92841 5.26217 5.9315 5.26881 5.93698 5.27404C5.93966 5.27659 5.94237 5.27823 5.94473 5.27919C5.9468 5.28004 5.94943 5.28074 5.95341 5.28074V6.17105ZM5.69524 5.67261C5.55145 5.75033 5.38097 5.79514 5.19885 5.78344L5.25593 4.89496C5.25593 4.89496 5.25688 4.89506 5.25923 4.89451C5.26174 4.89392 5.2661 4.89253 5.27193 4.88938L5.69524 5.67261ZM5.19826 5.7834C4.70399 5.75099 4.34167 5.33065 4.34167 4.85309H5.23198C5.23198 4.86814 5.23744 4.87973 5.24429 4.88729C5.25097 4.89465 5.2555 4.89493 5.25652 4.895L5.19826 5.7834ZM4.34167 4.85309V2.72748H5.23198V4.85309H4.34167ZM5.17236 2.95002L4.93032 3.36934L4.15924 2.92426L4.40128 2.50494L5.17236 2.95002ZM4.93072 3.36864C4.75871 3.66789 4.43853 3.85192 4.09423 3.85192V2.96161C4.12152 2.96161 4.14647 2.94647 4.15884 2.92496L4.93072 3.36864ZM4.09423 3.85192C3.92588 3.85192 3.76017 3.80777 3.61373 3.72386L4.05637 2.95138C4.06834 2.95824 4.08149 2.96161 4.09423 2.96161V3.85192ZM3.61178 3.72274C3.41192 3.60687 3.26645 3.41831 3.20644 3.19373L4.06658 2.96392C4.06618 2.9624 4.06507 2.95971 4.06292 2.95692C4.0608 2.95415 4.05883 2.9528 4.05832 2.9525L3.61178 3.72274ZM3.20658 3.19423C3.14634 2.96982 3.17788 2.73314 3.29407 2.53247L4.06454 2.9786C4.06517 2.9775 4.06629 2.97496 4.06676 2.97136C4.06724 2.96776 4.06684 2.96488 4.06645 2.96342L3.20658 3.19423ZM3.6793 2.31038C3.46094 2.36762 3.29749 2.52666 3.29627 2.52871C3.29587 2.5294 3.29526 2.53043 3.29507 2.53076C3.29496 2.53095 3.29477 2.53127 3.2947 2.53138C3.29466 2.53145 3.29458 2.53159 3.29456 2.53162C3.2945 2.53173 3.29452 2.5317 3.29469 2.53141C3.29499 2.53089 3.2955 2.53001 3.29624 2.52873C3.2977 2.5262 3.29989 2.5224 3.3028 2.51738C3.30859 2.50735 3.31711 2.49261 3.32798 2.47379C3.34973 2.43614 3.38084 2.38227 3.41834 2.31734C3.49334 2.18748 3.59383 2.01345 3.69582 1.83679C3.90016 1.48288 4.10966 1.11996 4.13338 1.07858L4.9057 1.52151C4.88112 1.56437 4.67053 1.92919 4.46685 2.28196C4.36484 2.45864 4.26433 2.6327 4.18932 2.76258C4.15182 2.82752 4.12068 2.88143 4.09892 2.91911C4.08804 2.93795 4.07949 2.95275 4.07365 2.96285C4.07074 2.96789 4.06848 2.9718 4.06693 2.97446C4.06617 2.97578 4.06554 2.97687 4.06508 2.97767C4.06486 2.97804 4.0646 2.9785 4.06434 2.97894C4.06425 2.97911 4.06396 2.9796 4.06362 2.98019C4.0634 2.98056 4.06278 2.98162 4.06236 2.98232C4.06112 2.9844 3.89767 3.14345 3.6793 3.20069V2.31038ZM4.11411 1.11622C4.11901 1.10541 4.13454 1.07057 4.14882 1.03846L4.96231 1.40023C4.94875 1.43073 4.93155 1.46935 4.92497 1.48387L4.11411 1.11622ZM4.14882 1.03845C4.15501 1.02454 4.16186 1.00676 4.17163 0.979191L5.01077 1.27669C4.99868 1.31079 4.98271 1.35437 4.96231 1.40024L4.14882 1.03845ZM4.17159 0.979312C4.47309 0.128126 5.23197 -0.410163 6.1344 -0.410163V0.480148C5.6106 0.480148 5.18691 0.779418 5.01081 1.27657L4.17159 0.979312ZM6.1344 -0.410163C7.33955 -0.410163 8.25898 0.64071 8.25898 1.8561H7.36867C7.36867 1.06315 6.78133 0.480148 6.1344 0.480148V-0.410163ZM8.25898 1.85608L8.25906 4.45168L7.36875 4.45171L7.36867 1.85611L8.25898 1.85608ZM8.25906 4.4517C8.25906 4.69581 8.16328 4.92764 7.99077 5.10048L7.36064 4.47152C7.36416 4.468 7.36587 4.465 7.36684 4.46266C7.36781 4.46032 7.36875 4.45688 7.36875 4.4517H8.25906ZM7.99047 5.10077C7.81767 5.27358 7.5857 5.36952 7.34133 5.36952V4.47921C7.34657 4.47921 7.34998 4.47826 7.35225 4.47732C7.35452 4.47638 7.35746 4.4747 7.36093 4.47123L7.99047 5.10077ZM7.10803 4.54524L7.10805 4.54523L7.57466 5.30347L7.57464 5.30348L7.10803 4.54524ZM6.13441 0.731263C5.71117 0.731263 5.39023 0.957675 5.24749 1.36058L4.40829 1.06327C4.6763 0.306753 5.33214 -0.159048 6.13441 -0.159048V0.731263ZM5.24715 1.36153C5.2331 1.40091 5.21485 1.45064 5.19178 1.50246L4.37842 1.14037C4.38729 1.12045 4.39641 1.09656 4.40863 1.06231L5.24715 1.36153ZM5.19167 1.5027C5.17129 1.54842 5.15421 1.58703 5.14114 1.61318C5.13303 1.62941 5.1199 1.65443 5.10085 1.68214C5.08156 1.71022 5.06249 1.73139 5.06094 1.73316L4.39049 1.14737C4.39154 1.14617 4.39119 1.14656 4.39067 1.14718C4.38999 1.14797 4.38826 1.14998 4.38599 1.15275C4.38092 1.15893 4.37428 1.16745 4.36712 1.17787C4.3532 1.19813 4.34541 1.21385 4.34472 1.21523C4.34421 1.21624 4.34453 1.21564 4.34604 1.2124C4.34751 1.20927 4.34958 1.20475 4.35256 1.19817C4.35864 1.18473 4.36673 1.1666 4.37853 1.14014L5.19167 1.5027ZM4.43475 1.77717L4.43302 1.77568L5.01495 1.10187L5.01668 1.10336L4.43475 1.77717ZM5.11732 1.64723C5.04765 1.77869 4.84875 2.12294 4.28222 3.10385L3.51125 2.65857C4.08574 1.66389 4.27101 1.34286 4.33065 1.23032L5.11732 1.64723ZM4.28203 3.10417C4.31765 3.04261 4.32758 2.96835 4.30926 2.89941L3.44882 3.12809C3.40658 2.96917 3.42894 2.80083 3.51144 2.65825L4.28203 3.10417ZM4.30889 2.89802C4.29057 2.82999 4.24555 2.77048 4.18293 2.73433L3.73781 3.50539C3.59481 3.42283 3.49173 3.2875 3.44919 3.12948L4.30889 2.89802ZM4.1821 2.73385C4.13142 2.70475 4.08214 2.70494 4.04811 2.7141C4.01421 2.72323 3.97074 2.74795 3.94099 2.79979L4.71316 3.24297C4.51915 3.581 4.07577 3.69951 3.73865 3.50587L4.1821 2.73385ZM3.9416 2.79873L4.41819 1.9736L5.18914 2.41889L4.71255 3.24403L3.9416 2.79873ZM4.41846 1.97313C4.54704 1.75114 4.80949 1.64005 5.06124 1.70819L4.82864 2.56758C4.96995 2.60583 5.11724 2.54303 5.18887 2.41936L4.41846 1.97313ZM5.06014 1.70789C5.30987 1.7748 5.48315 2.00111 5.48315 2.25917H4.59284C4.59284 2.40365 4.68981 2.53039 4.82974 2.56787L5.06014 1.70789ZM5.48315 2.25917V4.85316H4.59284V2.25917H5.48315ZM5.48315 4.85316C5.48315 4.80243 5.46436 4.75632 5.43351 4.72103C5.40271 4.68579 5.34836 4.64941 5.27308 4.64446L5.21461 5.53285C4.83987 5.50819 4.59284 5.18175 4.59284 4.85316H5.48315ZM5.26736 4.64412C5.21476 4.64134 5.15052 4.6606 5.10169 4.70934L5.73068 5.33944C5.59014 5.47974 5.40382 5.54289 5.22034 5.53319L5.26736 4.64412ZM5.10141 4.70962C5.05917 4.75187 5.03569 4.80975 5.03569 4.86778H5.926C5.926 5.04459 5.85658 5.21354 5.73096 5.33916L5.10141 4.70962ZM5.03569 4.86778V3.17128H5.926V4.86778H5.03569ZM5.03569 3.17128C5.03569 2.85605 5.29123 2.60051 5.60646 2.60051V3.49082C5.78294 3.49082 5.926 3.34776 5.926 3.17128H5.03569ZM5.60646 2.60051C5.92151 2.60051 6.17723 2.8558 6.17723 3.17128H5.28692C5.28692 3.34786 5.43016 3.49082 5.60646 3.49082V2.60051ZM6.17723 3.1713L6.17715 5.25341L5.28684 5.25338L5.28692 3.17127L6.17723 3.1713ZM6.17715 5.2534C6.17715 5.12962 6.07719 5.02966 5.95342 5.02966V5.91997C5.58549 5.91997 5.28684 5.62133 5.28684 5.2534H6.17715ZM5.95342 5.02966C5.89548 5.02966 5.83788 5.05301 5.79572 5.09509L6.42466 5.72524C6.29896 5.85069 6.12997 5.91997 5.95342 5.91997V5.02966ZM5.79512 5.09569C5.75303 5.13785 5.72969 5.19546 5.72969 5.2534H6.62C6.62 5.42995 6.55072 5.59894 6.42526 5.72464L5.79512 5.09569ZM5.72969 5.2534V3.17128H6.62V5.2534H5.72969ZM5.72969 3.17128C5.72969 2.85624 5.98497 2.60051 6.30046 2.60051V3.49082C6.47704 3.49082 6.62 3.34757 6.62 3.17128H5.72969ZM6.30046 2.60051C6.61551 2.60051 6.87123 2.85579 6.87123 3.17128H5.98092C5.98092 3.34786 6.12417 3.49082 6.30046 3.49082V2.60051ZM6.87123 3.1713L6.87116 4.84829L5.98084 4.84825L5.98092 3.17126L6.87123 3.1713ZM6.87116 4.84827V4.86778H5.98084V4.84827H6.87116ZM6.87116 4.86778C6.87116 4.74371 6.77098 4.64396 6.6475 4.64396V5.53427C6.27971 5.53427 5.98084 5.23585 5.98084 4.86778H6.87116ZM6.6475 4.64396C6.58835 4.64396 6.53108 4.66802 6.49009 4.70886L7.11845 5.33959C6.99344 5.46413 6.82511 5.53427 6.6475 5.53427V4.64396ZM6.48979 4.70915C6.44721 4.75166 6.42377 4.80973 6.42377 4.86769H7.31408C7.31408 5.04443 7.2447 5.21357 7.11874 5.33929L6.48979 4.70915ZM6.42377 4.86769V3.17119H7.31408V4.86769H6.42377ZM6.42377 3.17119C6.42377 2.85614 6.67906 2.60042 6.99454 2.60042V3.49073C7.17112 3.49073 7.31408 3.34749 7.31408 3.17119H6.42377ZM6.99454 2.60042C7.30959 2.60042 7.56532 2.8557 7.56532 3.17119H6.675C6.675 3.34777 6.81825 3.49073 6.99454 3.49073V2.60042ZM7.56532 3.17125L7.56516 4.45181L6.67485 4.4517L6.675 3.17114L7.56532 3.17125ZM7.56516 4.45175C7.56516 4.32827 7.46541 4.2281 7.34134 4.2281V5.11841C6.97329 5.11841 6.67485 4.81955 6.67485 4.45175H7.56516ZM7.34134 4.2281C7.28295 4.2281 7.22534 4.25174 7.18348 4.29353L7.81243 4.92367C7.68718 5.04868 7.51851 5.11841 7.34134 5.11841V4.2281ZM7.18318 4.29383C7.14079 4.33622 7.11753 4.39407 7.11753 4.45175H8.00784C8.00784 4.62806 7.9388 4.79729 7.81272 4.92337L7.18318 4.29383ZM7.11753 4.45174L7.11761 1.85614L8.00792 1.85617L8.00784 4.45177L7.11753 4.45174ZM7.11761 1.85616C7.11761 1.19581 6.63747 0.731289 6.1344 0.731289V-0.159022C7.20657 -0.159022 8.00792 0.785246 8.00792 1.85616H7.11761ZM5.70637 0.16384L5.70638 0.163814L6.56244 0.408401L6.56243 0.408427L5.70637 0.16384Z" fill="#4CAF4F" mask="url(#path-1-inside-1_212_1414)"/>
<mask id="path-3-inside-2_212_1414" fill="white">
<path d="M2.40593 6.72833L4.22875 5.63481C4.44852 5.50283 4.7313 5.55891 4.87225 5.76256C4.9237 5.83673 4.94997 5.92318 4.95406 6.0112C5.02202 5.97573 5.09596 5.95646 5.17123 5.95646C5.20977 5.95646 5.24847 5.96125 5.2867 5.97077C5.40917 6.00137 5.51237 6.0779 5.57727 6.18613C5.64224 6.29452 5.6612 6.42155 5.6306 6.54388C5.60236 6.65707 5.53354 6.75233 5.43781 6.81769C5.50475 6.85718 5.56248 6.91106 5.60354 6.97965C5.66852 7.08804 5.68747 7.21501 5.65695 7.33748C5.62635 7.45979 5.54982 7.56298 5.44143 7.62805L5.4408 7.62844C5.50656 7.66785 5.56327 7.72118 5.60386 7.78874C5.66891 7.89714 5.68787 8.02416 5.65727 8.14663C5.62659 8.26902 5.55006 8.37222 5.44183 8.4372L3.21614 9.77243C2.80074 10.0215 2.32053 10.1075 1.86416 10.0143C1.40369 9.92024 1.02235 9.65556 0.790476 9.26902C0.423529 8.65745 0.478521 7.9349 0.933713 7.38342C0.954559 7.35825 0.975088 7.3326 0.99373 7.30602C1.01347 7.27794 1.03652 7.2449 1.04439 7.23357C1.0915 7.14941 1.86032 5.76423 1.86024 5.76439C1.93787 5.6243 2.08339 5.545 2.23347 5.54508C2.30347 5.54508 2.3745 5.56231 2.44003 5.59865C2.51916 5.64286 2.58562 5.70728 2.63211 5.78491C2.72768 5.9442 2.73106 6.14352 2.64108 6.30484L2.40593 6.72833ZM2.41687 5.91405C2.39249 5.87338 2.35898 5.84097 2.31799 5.81801C2.23328 5.77113 2.12662 5.80165 2.07998 5.88605C1.52985 6.87714 1.34232 7.21489 1.26995 7.33509L1.2716 7.33548C1.26554 7.35562 1.26554 7.35562 1.19932 7.45024C1.17682 7.48226 1.15236 7.51301 1.12742 7.5433C0.736008 8.01753 0.69056 8.61432 1.00574 9.13982C1.20097 9.46531 1.52363 9.68846 1.91432 9.76822C2.30925 9.84853 2.72552 9.77381 3.0868 9.55703L5.31269 8.22174C5.36351 8.1913 5.39938 8.14292 5.41369 8.08558C5.42801 8.02832 5.41912 7.96877 5.3886 7.91796C5.32583 7.81334 5.18952 7.77897 5.0849 7.84198L3.98684 8.50074C3.92737 8.53645 3.85013 8.51726 3.8145 8.45772C3.77879 8.39825 3.79806 8.32109 3.85752 8.28538L4.95567 7.62661L5.3123 7.41266C5.36312 7.38214 5.39906 7.33377 5.41338 7.27658C5.42769 7.21924 5.41881 7.15962 5.38829 7.10888C5.32544 7.00419 5.18912 6.97013 5.08459 7.0329L3.62981 7.90562C3.57018 7.9414 3.49318 7.92206 3.45747 7.86259C3.42176 7.80312 3.4411 7.72596 3.50049 7.69025L5.28595 6.61917C5.33677 6.58865 5.37264 6.54035 5.38695 6.48301C5.40127 6.42575 5.39238 6.3662 5.36194 6.31539C5.3315 6.26466 5.28312 6.22879 5.22578 6.21447C5.16812 6.20016 5.10882 6.20905 5.05816 6.23941L4.72764 6.43771C4.72756 6.43771 4.72756 6.43778 4.72748 6.43778H4.7274L3.2727 7.3105C3.21308 7.34637 3.13599 7.32702 3.10036 7.26748C3.06465 7.20801 3.084 7.13085 3.14339 7.09514L4.59817 6.22242C4.64898 6.1919 4.68493 6.14352 4.69924 6.08634C4.71498 6.02357 4.70302 5.95939 4.66574 5.90558C4.60108 5.81206 4.4628 5.7872 4.35795 5.85021L2.13367 7.18457C2.08498 7.21368 2.02261 7.2066 1.98178 7.16719C1.94088 7.1277 1.93168 7.06564 1.95921 7.01601L2.42172 6.1827C2.46813 6.0994 2.46632 5.99652 2.41684 5.91408L2.41687 5.91405Z"/>
</mask>
<path d="M2.40593 6.72833L4.22875 5.63481C4.44852 5.50283 4.7313 5.55891 4.87225 5.76256C4.9237 5.83673 4.94997 5.92318 4.95406 6.0112C5.02202 5.97573 5.09596 5.95646 5.17123 5.95646C5.20977 5.95646 5.24847 5.96125 5.2867 5.97077C5.40917 6.00137 5.51237 6.0779 5.57727 6.18613C5.64224 6.29452 5.6612 6.42155 5.6306 6.54388C5.60236 6.65707 5.53354 6.75233 5.43781 6.81769C5.50475 6.85718 5.56248 6.91106 5.60354 6.97965C5.66852 7.08804 5.68747 7.21501 5.65695 7.33748C5.62635 7.45979 5.54982 7.56298 5.44143 7.62805L5.4408 7.62844C5.50656 7.66785 5.56327 7.72118 5.60386 7.78874C5.66891 7.89714 5.68787 8.02416 5.65727 8.14663C5.62659 8.26902 5.55006 8.37222 5.44183 8.4372L3.21614 9.77243C2.80074 10.0215 2.32053 10.1075 1.86416 10.0143C1.40369 9.92024 1.02235 9.65556 0.790476 9.26902C0.423529 8.65745 0.478521 7.9349 0.933713 7.38342C0.954559 7.35825 0.975088 7.3326 0.99373 7.30602C1.01347 7.27794 1.03652 7.2449 1.04439 7.23357C1.0915 7.14941 1.86032 5.76423 1.86024 5.76439C1.93787 5.6243 2.08339 5.545 2.23347 5.54508C2.30347 5.54508 2.3745 5.56231 2.44003 5.59865C2.51916 5.64286 2.58562 5.70728 2.63211 5.78491C2.72768 5.9442 2.73106 6.14352 2.64108 6.30484L2.40593 6.72833ZM2.41687 5.91405C2.39249 5.87338 2.35898 5.84097 2.31799 5.81801C2.23328 5.77113 2.12662 5.80165 2.07998 5.88605C1.52985 6.87714 1.34232 7.21489 1.26995 7.33509L1.2716 7.33548C1.26554 7.35562 1.26554 7.35562 1.19932 7.45024C1.17682 7.48226 1.15236 7.51301 1.12742 7.5433C0.736008 8.01753 0.69056 8.61432 1.00574 9.13982C1.20097 9.46531 1.52363 9.68846 1.91432 9.76822C2.30925 9.84853 2.72552 9.77381 3.0868 9.55703L5.31269 8.22174C5.36351 8.1913 5.39938 8.14292 5.41369 8.08558C5.42801 8.02832 5.41912 7.96877 5.3886 7.91796C5.32583 7.81334 5.18952 7.77897 5.0849 7.84198L3.98684 8.50074C3.92737 8.53645 3.85013 8.51726 3.8145 8.45772C3.77879 8.39825 3.79806 8.32109 3.85752 8.28538L4.95567 7.62661L5.3123 7.41266C5.36312 7.38214 5.39906 7.33377 5.41338 7.27658C5.42769 7.21924 5.41881 7.15962 5.38829 7.10888C5.32544 7.00419 5.18912 6.97013 5.08459 7.0329L3.62981 7.90562C3.57018 7.9414 3.49318 7.92206 3.45747 7.86259C3.42176 7.80312 3.4411 7.72596 3.50049 7.69025L5.28595 6.61917C5.33677 6.58865 5.37264 6.54035 5.38695 6.48301C5.40127 6.42575 5.39238 6.3662 5.36194 6.31539C5.3315 6.26466 5.28312 6.22879 5.22578 6.21447C5.16812 6.20016 5.10882 6.20905 5.05816 6.23941L4.72764 6.43771C4.72756 6.43771 4.72756 6.43778 4.72748 6.43778H4.7274L3.2727 7.3105C3.21308 7.34637 3.13599 7.32702 3.10036 7.26748C3.06465 7.20801 3.084 7.13085 3.14339 7.09514L4.59817 6.22242C4.64898 6.1919 4.68493 6.14352 4.69924 6.08634C4.71498 6.02357 4.70302 5.95939 4.66574 5.90558C4.60108 5.81206 4.4628 5.7872 4.35795 5.85021L2.13367 7.18457C2.08498 7.21368 2.02261 7.2066 1.98178 7.16719C1.94088 7.1277 1.93168 7.06564 1.95921 7.01601L2.42172 6.1827C2.46813 6.0994 2.46632 5.99652 2.41684 5.91408L2.41687 5.91405Z" fill="#4CAF4F"/>
<path d="M2.40593 6.72833L2.63494 7.11006L1.21024 7.96474L2.01675 6.51223L2.40593 6.72833ZM4.22875 5.63481L4.45794 6.01644L4.45776 6.01655L4.22875 5.63481ZM4.87225 5.76256L4.50646 6.01625L4.50623 6.01591L4.87225 5.76256ZM4.95406 6.0112L5.16005 6.40583L4.54175 6.72857L4.50938 6.03186L4.95406 6.0112ZM5.2867 5.97077L5.39425 5.5388L5.3946 5.53889L5.2867 5.97077ZM5.57727 6.18613L5.95905 5.9572L5.95909 5.95726L5.57727 6.18613ZM5.6306 6.54388L5.19868 6.43613L5.19875 6.43585L5.6306 6.54388ZM5.43781 6.81769L5.21164 7.20111L4.60818 6.84514L5.18679 6.45006L5.43781 6.81769ZM5.60354 6.97965L5.22173 7.20852L5.22159 7.2083L5.60354 6.97965ZM5.65695 7.33748L6.0889 7.44512L6.0888 7.44551L5.65695 7.33748ZM5.44143 7.62805L5.20546 7.25049L5.21233 7.24637L5.44143 7.62805ZM5.4408 7.62844L5.21197 8.01028L4.58812 7.63642L5.20487 7.25095L5.4408 7.62844ZM5.60386 7.78874L5.98546 7.55951L5.98555 7.55967L5.60386 7.78874ZM5.65727 8.14663L6.08915 8.25454L6.08907 8.25486L5.65727 8.14663ZM5.44183 8.4372L5.67097 8.81885L5.67084 8.81893L5.44183 8.4372ZM3.21614 9.77243L3.44515 10.1542L3.44508 10.1542L3.21614 9.77243ZM1.86416 10.0143L1.77507 10.4505L1.77505 10.4505L1.86416 10.0143ZM0.790476 9.26902L1.17219 9.03999L1.17222 9.04003L0.790476 9.26902ZM0.933713 7.38342L0.5904 7.10004L0.590865 7.09948L0.933713 7.38342ZM0.99373 7.30602L0.629242 7.05045L0.629575 7.04998L0.99373 7.30602ZM1.04439 7.23357L1.43282 7.45102L1.42231 7.4698L1.41003 7.48747L1.04439 7.23357ZM1.86024 5.76439L2.2496 5.98017L1.46208 5.56531L1.86024 5.76439ZM2.23347 5.54508V5.99024H2.23323L2.23347 5.54508ZM2.44003 5.59865L2.65593 5.20936L2.65713 5.21003L2.44003 5.59865ZM2.63211 5.78491L2.25039 6.01394L2.25019 6.0136L2.63211 5.78491ZM2.64108 6.30484L2.25189 6.08874L2.25232 6.08798L2.64108 6.30484ZM2.41687 5.91405L2.79865 5.68513L2.95305 5.94263L2.77216 6.18225L2.41687 5.91405ZM2.31799 5.81801L2.53354 5.42851L2.53563 5.42968L2.31799 5.81801ZM2.07998 5.88605L2.46961 6.10135L2.4692 6.10209L2.07998 5.88605ZM1.26995 7.33509L1.16684 7.76814L0.574503 7.62711L0.888587 7.10547L1.26995 7.33509ZM1.2716 7.33548L1.37471 6.90243L1.83383 7.01175L1.69789 7.4637L1.2716 7.33548ZM1.19932 7.45024L1.56402 7.7055L1.56353 7.70619L1.19932 7.45024ZM1.12742 7.5433L1.47107 7.82626L1.47074 7.82666L1.12742 7.5433ZM1.00574 9.13982L0.623987 9.3688L0.623979 9.36878L1.00574 9.13982ZM1.91432 9.76822L1.82561 10.2044L1.82527 10.2044L1.91432 9.76822ZM3.0868 9.55703L2.85777 9.17531L2.8578 9.17529L3.0868 9.55703ZM5.31269 8.22174L5.08369 7.84L5.08392 7.83986L5.31269 8.22174ZM5.41369 8.08558L4.98179 7.97776L4.98183 7.97762L5.41369 8.08558ZM5.3886 7.91796L5.00699 8.14717L5.00688 8.14699L5.3886 7.91796ZM5.0849 7.84198L5.31456 8.22331L5.31391 8.2237L5.0849 7.84198ZM3.98684 8.50074L3.75766 8.11911L3.75782 8.11901L3.98684 8.50074ZM3.8145 8.45772L4.19613 8.22854L4.19648 8.22913L3.8145 8.45772ZM3.85752 8.28538L3.62834 7.90375L3.62852 7.90364L3.85752 8.28538ZM4.95567 7.62661L5.18467 8.00834L5.18467 8.00835L4.95567 7.62661ZM5.3123 7.41266L5.54151 7.79427L5.54131 7.79439L5.3123 7.41266ZM5.41338 7.27658L5.84528 7.38441L5.84521 7.38468L5.41338 7.27658ZM5.38829 7.10888L5.00683 7.33835L5.00662 7.338L5.38829 7.10888ZM5.08459 7.0329L5.31375 7.41454L5.31359 7.41463L5.08459 7.0329ZM3.62981 7.90562L3.4007 7.52394L3.4008 7.52388L3.62981 7.90562ZM3.45747 7.86259L3.83909 7.63341L3.8391 7.63341L3.45747 7.86259ZM3.50049 7.69025L3.27109 7.30875L3.27149 7.30851L3.50049 7.69025ZM5.28595 6.61917L5.51516 7.00078L5.51495 7.00091L5.28595 6.61917ZM5.38695 6.48301L4.95505 6.37519L4.95509 6.37505L5.38695 6.48301ZM5.36194 6.31539L5.74366 6.08636L5.74381 6.08662L5.36194 6.31539ZM5.22578 6.21447L5.33305 5.78244L5.3336 5.78257L5.22578 6.21447ZM5.05816 6.23941L4.82914 5.85768L4.8293 5.85759L5.05816 6.23941ZM4.72764 6.43771L4.95666 6.81943L4.85093 6.88286H4.72764V6.43771ZM4.7274 6.43778L4.49839 6.05606L4.60412 5.99263H4.7274V6.43778ZM3.2727 7.3105L3.04323 6.92905L3.04369 6.92877L3.2727 7.3105ZM3.10036 7.26748L3.48199 7.0383L3.48235 7.03889L3.10036 7.26748ZM3.14339 7.09514L2.91399 6.71364L2.91439 6.7134L3.14339 7.09514ZM4.59817 6.22242L4.82737 6.60403L4.82717 6.60415L4.59817 6.22242ZM4.69924 6.08634L4.26741 5.97824L4.26744 5.97812L4.69924 6.08634ZM4.66574 5.90558L4.29985 6.15914L4.29957 6.15873L4.66574 5.90558ZM4.35795 5.85021L4.58723 6.23177L4.58695 6.23194L4.35795 5.85021ZM2.13367 7.18457L2.36268 7.56631L2.36206 7.56667L2.13367 7.18457ZM1.98178 7.16719L1.67261 7.48747L1.6726 7.48746L1.98178 7.16719ZM1.95921 7.01601L1.56993 6.80008L1.56998 6.79998L1.95921 7.01601ZM2.42172 6.1827L2.0325 5.96667L2.03285 5.96604L2.42172 6.1827ZM2.41684 5.91408L2.03515 6.14315L1.88058 5.8856L2.06156 5.64587L2.41684 5.91408ZM2.17693 6.34659L3.99975 5.25308L4.45776 6.01655L2.63494 7.11006L2.17693 6.34659ZM3.99956 5.25319C4.40903 5.00728 4.95625 5.10174 5.23828 5.50921L4.50623 6.01591C4.50569 6.01514 4.50316 6.0114 4.4934 6.00946C4.48338 6.00747 4.4707 6.00877 4.45794 6.01644L3.99956 5.25319ZM5.23805 5.50887C5.3421 5.65889 5.39119 5.82808 5.39873 5.99054L4.50938 6.03186C4.50875 6.01827 4.5053 6.01457 4.50646 6.01625L5.23805 5.50887ZM4.74807 5.61657C4.87496 5.55034 5.01915 5.5113 5.17123 5.5113V6.40161C5.17277 6.40161 5.16908 6.40112 5.16005 6.40583L4.74807 5.61657ZM5.17123 5.5113C5.24683 5.5113 5.32163 5.52072 5.39425 5.5388L5.17916 6.40274C5.17532 6.40178 5.17272 6.40161 5.17123 6.40161V5.5113ZM5.3946 5.53889C5.63178 5.59815 5.83345 5.74776 5.95905 5.9572L5.1955 6.41507C5.19293 6.41078 5.19045 6.40841 5.18848 6.40695C5.18652 6.4055 5.18357 6.40384 5.1788 6.40265L5.3946 5.53889ZM5.95909 5.95726C6.08454 6.16656 6.12178 6.41472 6.06245 6.6519L5.19875 6.43585C5.19992 6.43119 5.19985 6.42787 5.19949 6.42543C5.19912 6.42298 5.19817 6.41953 5.19546 6.415L5.95909 5.95726ZM6.06252 6.65163C6.00657 6.87589 5.87014 7.06152 5.68883 7.18532L5.18679 6.45006C5.19241 6.44622 5.19515 6.44298 5.19634 6.44129C5.19744 6.43975 5.19814 6.43829 5.19868 6.43613L6.06252 6.65163ZM5.66398 6.43427C5.78729 6.50701 5.90192 6.6114 5.98549 6.75101L5.22159 7.2083C5.22205 7.20906 5.22218 7.20897 5.22112 7.20795C5.21995 7.20682 5.21706 7.20431 5.21164 7.20111L5.66398 6.43427ZM5.98536 6.75078C6.11084 6.96012 6.14797 7.20808 6.0889 7.44512L5.22501 7.22983C5.22623 7.22493 5.22615 7.22147 5.22578 7.219C5.22541 7.21653 5.22446 7.21307 5.22173 7.20852L5.98536 6.75078ZM6.0888 7.44551C6.02948 7.68262 5.87982 7.88409 5.67053 8.00972L5.21233 7.24637C5.21685 7.24366 5.21933 7.24105 5.22082 7.23904C5.22231 7.23703 5.22394 7.23411 5.2251 7.22945L6.0888 7.44551ZM5.67736 8.00554L5.67673 8.00593L5.20487 7.25095L5.2055 7.25056L5.67736 8.00554ZM5.66963 7.2466C5.79072 7.31917 5.90307 7.42236 5.98546 7.55951L5.22227 8.01798C5.22262 8.01856 5.22262 8.01833 5.22148 8.01723C5.22024 8.01602 5.21733 8.01349 5.21197 8.01028L5.66963 7.2466ZM5.98555 7.55967C6.11126 7.76913 6.14841 8.01735 6.08915 8.25454L5.22539 8.03872C5.22659 8.0339 5.22651 8.03052 5.22615 8.02811C5.22579 8.0257 5.22486 8.0223 5.22217 8.01782L5.98555 7.55967ZM6.08907 8.25486C6.02969 8.49176 5.88019 8.69324 5.67097 8.81885L5.21269 8.05555C5.21707 8.05292 5.21953 8.05036 5.22105 8.0483C5.22257 8.04625 5.22426 8.04323 5.22547 8.03841L6.08907 8.25486ZM5.67084 8.81893L3.44515 10.1542L2.98713 9.3907L5.21282 8.05547L5.67084 8.81893ZM3.44508 10.1542C2.93846 10.458 2.34529 10.5669 1.77507 10.4505L1.95324 9.57816C2.29577 9.64812 2.66303 9.58506 2.9872 9.39066L3.44508 10.1542ZM1.77505 10.4505C1.19824 10.3326 0.707851 9.99665 0.408736 9.49801L1.17222 9.04003C1.33685 9.31447 1.60914 9.50786 1.95326 9.57817L1.77505 10.4505ZM0.408761 9.49805C-0.0555996 8.72414 0.0156587 7.79636 0.5904 7.10004L1.27703 7.66679C0.941384 8.07343 0.902657 8.59077 1.17219 9.03999L0.408761 9.49805ZM0.590865 7.09948C0.609287 7.07724 0.620882 7.06238 0.629242 7.05045L1.35822 7.56158C1.32929 7.60283 1.29983 7.63925 1.27656 7.66735L0.590865 7.09948ZM0.629575 7.04998C0.648814 7.02262 0.671364 6.99029 0.678741 6.97967L1.41003 7.48747C1.40168 7.49951 1.37813 7.53325 1.35788 7.56205L0.629575 7.04998ZM0.655952 7.01613C0.679001 6.97495 0.882329 6.6088 1.08081 6.25129C1.17985 6.0729 1.27741 5.89715 1.35021 5.766C1.38661 5.70042 1.41681 5.646 1.43792 5.60798C1.44847 5.58897 1.45675 5.57405 1.46239 5.56389C1.46521 5.55881 1.46737 5.55492 1.46883 5.55229C1.46956 5.55098 1.47012 5.54998 1.47049 5.5493C1.47068 5.54896 1.47083 5.54868 1.47094 5.54849C1.47099 5.54839 1.47106 5.54828 1.47112 5.54817C1.47115 5.54811 1.47123 5.54797 1.47128 5.54787C1.47144 5.5476 2.06836 5.37088 2.2584 5.96347L1.46208 5.56531C1.65211 6.1579 2.24903 5.98119 2.24917 5.98094C2.24921 5.98086 2.24928 5.98075 2.24929 5.98073C2.2493 5.98071 2.24929 5.98072 2.24925 5.98079C2.24918 5.98093 2.24905 5.98115 2.24887 5.98148C2.24851 5.98213 2.24797 5.98311 2.24724 5.98441C2.24579 5.98702 2.24364 5.99091 2.24082 5.99599C2.23518 6.00614 2.22691 6.02105 2.21635 6.04006C2.19524 6.07809 2.16503 6.13252 2.12863 6.19809C2.05583 6.32925 1.95826 6.50502 1.85921 6.68343C1.66152 7.03951 1.45689 7.40803 1.43282 7.45102L0.655952 7.01613ZM1.47088 5.54861C1.63024 5.26104 1.92852 5.09976 2.23371 5.09993L2.23323 5.99024C2.2364 5.99024 2.23914 5.98949 2.24176 5.98798C2.24501 5.98611 2.248 5.98305 2.2496 5.98017L1.47088 5.54861ZM2.23347 5.09993C2.37687 5.09993 2.52249 5.13535 2.65593 5.20936L2.22412 5.98794C2.22651 5.98927 2.23008 5.99024 2.23347 5.99024V5.09993ZM2.65713 5.21003C2.80402 5.29209 2.92741 5.41156 3.01403 5.55623L2.25019 6.0136C2.24384 6.00299 2.23429 5.99363 2.22292 5.98728L2.65713 5.21003ZM3.01383 5.55588C3.1909 5.85101 3.19792 6.22039 3.02984 6.5217L2.25232 6.08798C2.26421 6.06666 2.26446 6.03738 2.25039 6.01394L3.01383 5.55588ZM3.03026 6.52093L2.79512 6.94442L2.01675 6.51223L2.25189 6.08874L3.03026 6.52093ZM2.03508 6.14297C2.05073 6.16906 2.0739 6.19151 2.10036 6.20634L2.53563 5.42968C2.64405 5.49044 2.73424 5.5777 2.79865 5.68513L2.03508 6.14297ZM2.10245 6.2075C2.23166 6.279 2.39658 6.23351 2.46961 6.10135L1.69035 5.67074C1.85666 5.36978 2.2349 5.26325 2.53354 5.42851L2.10245 6.2075ZM2.4692 6.10209C1.92277 7.08651 1.72902 7.43564 1.65131 7.56471L0.888587 7.10547C0.955615 6.99415 1.13693 6.66778 1.69076 5.67L2.4692 6.10209ZM1.37306 6.90204L1.37471 6.90243L1.16849 7.76853L1.16684 7.76814L1.37306 6.90204ZM1.69789 7.4637C1.69726 7.4658 1.68911 7.49456 1.67487 7.52709C1.66053 7.55985 1.64512 7.58561 1.63469 7.60218C1.61822 7.62833 1.59282 7.66434 1.56402 7.7055L0.834614 7.19499C0.851513 7.17084 0.862985 7.15445 0.871418 7.14224C0.875538 7.13627 0.878287 7.13224 0.880131 7.12949C0.88204 7.12665 0.882197 7.12635 0.88136 7.12768C0.879957 7.12991 0.869827 7.14597 0.859261 7.17011C0.85391 7.18234 0.850049 7.19294 0.847462 7.20064C0.8463 7.2041 0.845499 7.20668 0.845199 7.20765C0.844967 7.2084 0.84483 7.20886 0.845311 7.20726L1.69789 7.4637ZM1.56353 7.70619C1.5314 7.75192 1.49863 7.7928 1.47107 7.82626L0.783769 7.26034C0.806087 7.23323 0.822238 7.2126 0.835097 7.1943L1.56353 7.70619ZM1.47074 7.82666C1.1988 8.15615 1.16973 8.54777 1.38749 8.91086L0.623979 9.36878C0.211393 8.68087 0.273218 7.87892 0.784101 7.25993L1.47074 7.82666ZM1.38749 8.91084C1.51493 9.12332 1.72798 9.27584 2.00336 9.33206L1.82527 10.2044C1.31928 10.1011 0.887004 9.8073 0.623987 9.3688L1.38749 8.91084ZM2.00302 9.33199C2.28392 9.38911 2.58737 9.33756 2.85777 9.17531L3.31584 9.93875C2.86366 10.2101 2.33458 10.3079 1.82561 10.2044L2.00302 9.33199ZM2.8578 9.17529L5.08369 7.84L5.54169 8.60347L3.3158 9.93877L2.8578 9.17529ZM5.08392 7.83986C5.03349 7.87008 4.99616 7.92021 4.98179 7.97776L5.84559 8.1934C5.80259 8.36563 5.69352 8.51252 5.54146 8.60361L5.08392 7.83986ZM4.98183 7.97762C4.96741 8.03529 4.97686 8.097 5.00699 8.14717L5.77021 7.68875C5.86138 7.84054 5.88861 8.02134 5.84556 8.19354L4.98183 7.97762ZM5.00688 8.14699C5.07007 8.2523 5.20718 8.28798 5.31456 8.22331L4.85524 7.46064C5.17185 7.26996 5.58159 7.37439 5.77032 7.68893L5.00688 8.14699ZM5.31391 8.2237L4.21585 8.88247L3.75782 8.11901L4.85589 7.46025L5.31391 8.2237ZM4.21601 8.88237C3.94632 9.04433 3.59498 8.95781 3.43251 8.6863L4.19648 8.22913C4.10527 8.07671 3.90843 8.02857 3.75766 8.11911L4.21601 8.88237ZM3.43287 8.68689C3.27055 8.4166 3.35817 8.06599 3.62835 7.90375L4.0867 8.66701C4.23794 8.57618 4.28702 8.3799 4.19613 8.22854L3.43287 8.68689ZM3.62852 7.90364L4.72667 7.24487L5.18467 8.00835L4.08652 8.66711L3.62852 7.90364ZM4.72666 7.24488L5.0833 7.03093L5.54131 7.79439L5.18467 8.00834L4.72666 7.24488ZM5.0831 7.03105C5.03352 7.06082 4.99608 7.11044 4.98155 7.16848L5.84521 7.38468C5.80205 7.55709 5.69271 7.70346 5.54151 7.79427L5.0831 7.03105ZM4.98148 7.16876C4.96718 7.22604 4.9764 7.28777 5.00683 7.33835L5.76974 6.87941C5.86121 7.03147 5.88821 7.21244 5.84528 7.38441L4.98148 7.16876ZM5.00662 7.338C5.07016 7.44385 5.20723 7.4785 5.31375 7.41454L4.85543 6.65126C5.17102 6.46176 5.58071 6.56453 5.76995 6.87977L5.00662 7.338ZM5.31359 7.41463L3.85881 8.28735L3.4008 7.52388L4.85559 6.65116L5.31359 7.41463ZM3.85891 8.28729C3.58821 8.44978 3.23791 8.36166 3.07583 8.09177L3.8391 7.63341C3.74844 7.48245 3.55215 7.43303 3.4007 7.52394L3.85891 8.28729ZM3.07584 8.09177C2.91332 7.82114 3.00158 7.47082 3.27109 7.30875L3.72989 8.07175C3.88063 7.9811 3.93019 7.78511 3.83909 7.63341L3.07584 8.09177ZM3.27149 7.30851L5.05696 6.23743L5.51495 7.00091L3.72949 8.07199L3.27149 7.30851ZM5.05675 6.23756C5.00696 6.26746 4.9695 6.31733 4.95505 6.37519L5.81885 6.59083C5.77578 6.76337 5.66657 6.90984 5.51516 7.00078L5.05675 6.23756ZM4.95509 6.37505C4.94068 6.43269 4.95014 6.49421 4.98007 6.54416L5.74381 6.08662C5.83462 6.2382 5.86186 6.4188 5.81882 6.59098L4.95509 6.37505ZM4.98022 6.54442C5.01043 6.59476 5.06047 6.63202 5.11796 6.64637L5.3336 5.78257C5.50577 5.82556 5.65257 5.93455 5.74366 6.08636L4.98022 6.54442ZM5.11851 6.64651C5.17492 6.66052 5.23649 6.65151 5.28702 6.62123L4.8293 5.85759C4.98114 5.76658 5.16133 5.7398 5.33305 5.78244L5.11851 6.64651ZM5.28718 6.62113L4.95666 6.81943L4.49862 6.05598L4.82914 5.85768L5.28718 6.62113ZM4.72764 6.88286C4.74625 6.88286 4.76584 6.88169 4.78621 6.87899C4.80662 6.87628 4.82716 6.87211 4.84764 6.86638C4.86814 6.86064 4.88771 6.85357 4.90627 6.84544C4.92479 6.83732 4.94157 6.82847 4.95662 6.81944C4.98646 6.80153 5.0085 6.78352 5.02209 6.77153C5.02888 6.76554 5.03418 6.76049 5.03738 6.7574C5.04029 6.75458 5.04274 6.75212 5.04232 6.75253C5.04232 6.75253 5.04232 6.75253 5.04232 6.75253C5.04232 6.75254 5.04231 6.75254 5.0423 6.75255C5.04229 6.75256 5.04227 6.75258 5.04225 6.75261C5.0422 6.75266 5.04211 6.75274 5.04201 6.75284C5.04182 6.75303 5.04149 6.75336 5.04109 6.75376C5.0403 6.75454 5.03899 6.75583 5.03736 6.75741C5.03416 6.76051 5.02886 6.76557 5.02206 6.77156C5.00846 6.78356 4.98641 6.80158 4.95656 6.81949C4.9415 6.82852 4.92472 6.83738 4.90619 6.8455C4.88762 6.85364 4.86804 6.86071 4.84754 6.86645C4.82705 6.87219 4.8065 6.87636 4.78608 6.87907C4.76571 6.88177 4.7461 6.88294 4.72748 6.88294V5.99263C4.70888 5.99263 4.68928 5.9938 4.66892 5.9965C4.64851 5.99921 4.62796 6.00338 4.60748 6.00911C4.58698 6.01485 4.56741 6.02192 4.54885 6.03005C4.53033 6.03817 4.51355 6.04703 4.4985 6.05605C4.46866 6.07396 4.44662 6.09197 4.43303 6.10396C4.42624 6.10995 4.42094 6.115 4.41775 6.11809C4.41484 6.12091 4.41239 6.12338 4.4128 6.12296C4.4128 6.12296 4.4128 6.12296 4.4128 6.12296C4.41281 6.12296 4.41281 6.12295 4.41282 6.12294C4.41283 6.12293 4.41285 6.12291 4.41288 6.12289C4.41293 6.12284 4.41301 6.12275 4.41311 6.12265C4.41331 6.12246 4.41363 6.12213 4.41403 6.12173C4.41482 6.12095 4.41613 6.11966 4.41776 6.11808C4.42096 6.11498 4.42627 6.10992 4.43306 6.10393C4.44666 6.09193 4.46871 6.07391 4.49856 6.056C4.51362 6.04697 4.53041 6.03811 4.54893 6.02999C4.5675 6.02185 4.58708 6.01478 4.60758 6.00904C4.62808 6.0033 4.64863 5.99913 4.66905 5.99642C4.68942 5.99372 4.70902 5.99255 4.72764 5.99255V6.88286ZM4.72748 6.88294H4.7274V5.99263H4.72748V6.88294ZM4.95641 6.81951L3.50171 7.69223L3.04369 6.92877L4.49839 6.05606L4.95641 6.81951ZM3.50217 7.69195C3.23149 7.85479 2.88043 7.76687 2.71838 7.49606L3.48235 7.03889C3.39155 6.88717 3.19467 6.83795 3.04323 6.92905L3.50217 7.69195ZM2.71873 7.49665C2.55621 7.22603 2.64447 6.8757 2.91399 6.71364L3.37279 7.47663C3.52353 7.38599 3.57309 7.19 3.48199 7.0383L2.71873 7.49665ZM2.91439 6.7134L4.36917 5.84068L4.82717 6.60415L3.37239 7.47687L2.91439 6.7134ZM4.36897 5.84081C4.31939 5.87058 4.28194 5.9202 4.26741 5.97824L5.13107 6.19444C5.08791 6.36685 4.97857 6.51322 4.82737 6.60403L4.36897 5.84081ZM4.26744 5.97812C4.25146 6.04189 4.26529 6.10926 4.29985 6.15914L5.03162 5.65203C5.14076 5.80951 5.17849 6.00525 5.13105 6.19456L4.26744 5.97812ZM4.29957 6.15873C4.34272 6.22115 4.40213 6.24905 4.44811 6.25732C4.49418 6.26561 4.54351 6.25805 4.58723 6.23177L4.12867 5.46864C4.41033 5.29939 4.81806 5.34311 5.03191 5.65244L4.29957 6.15873ZM4.58695 6.23194L2.36268 7.56631L1.90467 6.80284L4.12894 5.46847L4.58695 6.23194ZM2.36206 7.56667C2.14132 7.69862 1.85855 7.66695 1.67261 7.48747L2.29095 6.84691C2.18667 6.74625 2.02864 6.72874 1.90528 6.80247L2.36206 7.56667ZM1.6726 7.48746C1.48651 7.3078 1.44476 7.02574 1.56993 6.80008L2.34848 7.23194C2.4186 7.10554 2.39525 6.94761 2.29096 6.84692L1.6726 7.48746ZM1.56998 6.79998L2.0325 5.96667L2.81094 6.39873L2.34843 7.23204L1.56998 6.79998ZM2.03285 5.96604C2.0011 6.02303 2.00332 6.09011 2.03515 6.14315L2.79854 5.685C2.92932 5.90292 2.93516 6.17577 2.8106 6.39936L2.03285 5.96604ZM2.06156 5.64587L2.06158 5.64584L2.77216 6.18225L2.77213 6.18229L2.06156 5.64587Z" fill="#4CAF4F" mask="url(#path-3-inside-2_212_1414)"/>
<path d="M6.73103 5.98515C6.69629 5.98544 6.66137 5.98984 6.62691 5.99846L6.73103 5.98515ZM6.73103 5.98515C6.73169 5.97559 6.73253 5.96601 6.73356 5.95642L6.73103 5.98515ZM6.3274 6.99427C6.32739 6.99429 6.32738 6.99431 6.32736 6.99433C6.32736 6.99434 6.32736 6.99434 6.32736 6.99434L6.3274 6.99427ZM6.3274 6.99427L6.3029 6.97954L6.32742 6.99424M6.3274 6.99427L6.32742 6.99424M6.32742 6.99424C6.32796 6.99334 6.3285 6.99245 6.32904 6.99157L6.32742 6.99424ZM8.03397 8.30994L8.03403 8.30997L8.03397 8.30994Z" fill="#4CAF4F" stroke="#4CAF4F" stroke-width="0.445155"/>
</svg>
