<svg width="15" height="12" viewBox="0 0 15 12" fill="none" xmlns="http://www.w3.org/2000/svg">
<path d="M1.72529 3.89365V4.06059H1.89222H13.9114H14.0784V3.89365V3.14245C14.0784 2.76613 13.9289 2.40522 13.6628 2.13912C13.3967 1.87302 13.0357 1.72352 12.6594 1.72352H3.14422C2.7679 1.72352 2.40699 1.87302 2.14089 2.13912C1.87479 2.40522 1.72529 2.76613 1.72529 3.14245V3.89365ZM14.0784 4.89525V4.72832H13.9114H1.89222H1.72529V4.89525V9.65285C1.72529 10.0292 1.87479 10.3901 2.14089 10.6562C2.40699 10.9223 2.7679 11.0718 3.14422 11.0718H12.6594C13.0357 11.0718 13.3967 10.9223 13.6628 10.6562C13.9289 10.3901 14.0784 10.0292 14.0784 9.65285V4.89525ZM1.05756 3.14245C1.05756 2.58904 1.2774 2.05828 1.66873 1.66696C2.06005 1.27563 2.59081 1.05579 3.14422 1.05579H12.6594C13.2128 1.05579 13.7436 1.27563 14.1349 1.66696C14.5262 2.05828 14.7461 2.58904 14.7461 3.14245V9.65285C14.7461 10.2063 14.5262 10.737 14.1349 11.1283C13.7436 11.5197 13.2128 11.7395 12.6594 11.7395H3.14422C2.59081 11.7395 2.06005 11.5197 1.66873 11.1283C1.2774 10.737 1.05756 10.2063 1.05756 9.65285V3.14245ZM10.4058 8.06699H11.9082C11.9968 8.06699 12.0817 8.10216 12.1443 8.16477C12.2069 8.22738 12.2421 8.3123 12.2421 8.40085C12.2421 8.4894 12.2069 8.57432 12.1443 8.63693C12.0817 8.69954 11.9968 8.73472 11.9082 8.73472H10.4058C10.3173 8.73472 10.2324 8.69954 10.1697 8.63693C10.1071 8.57432 10.072 8.4894 10.072 8.40085C10.072 8.31231 10.1071 8.22738 10.1697 8.16477C10.2324 8.10216 10.3173 8.06699 10.4058 8.06699Z" fill="#4CAF4F" stroke="#4CAF4F" stroke-width="0.333867"/>
</svg>
